<svg id="Layer_1" data-name="Layer 1" xmlns="http://www.w3.org/2000/svg" viewBox="0 0 422.62 222.24"><defs><style>.cls-1{fill:#231f20;stroke:#231f20;}.cls-1,.cls-2,.cls-4{stroke-miterlimit:10;}.cls-2,.cls-4{fill:none;}.cls-2{stroke:#fff;stroke-width:5px;}.cls-3{fill:#fff;}.cls-4{stroke:#000;stroke-width:10px;}</style></defs><path class="cls-1" d="M158,35.87H277.74a16,16,0,0,1,16,16V205.76a16,16,0,0,1-16,16H158a5.14,5.14,0,0,1-5.14-5.14V41A5.14,5.14,0,0,1,158,35.87Z"/><path class="cls-1" d="M141.78,35.87h2.75A5.14,5.14,0,0,1,149.68,41V216.6a5.14,5.14,0,0,1-5.14,5.14h-2.75a16,16,0,0,1-16-16V51.85a16,16,0,0,1,16-16Z"/><line class="cls-2" x1="171.92" y1="56.49" x2="204.8" y2="87.55"/><line class="cls-2" x1="204.8" y1="56.49" x2="171.92" y2="87.55"/><line class="cls-2" x1="236.79" y1="56.49" x2="269.68" y2="87.55"/><line class="cls-2" x1="269.68" y1="56.49" x2="236.79" y2="87.55"/><line class="cls-2" x1="199.34" y1="106.01" x2="247.21" y2="106.01"/><path class="cls-3" d="M293.86,240.67a19.58,19.58,0,0,1,2.44.23l.18,0c.83-.1,1.72-.15,2.54-.18h.34a83,83,0,0,1,5.1-7.83c1.42-1.89,2-3.91,3.44-5.78a3.79,3.79,0,0,1,.7-.74,3.62,3.62,0,0,1,.33-1.28,3.63,3.63,0,0,1-.21-.69c-.1-.22-.22-.44-.3-.66a4.23,4.23,0,0,1-.24-.68l-.29-.08c-.45-.82-.84-1.49-1.19-2.16a210.11,210.11,0,0,1-10.52-24.68c-1.57-4.33-3.14-8.64-3.21-13.1a56.83,56.83,0,0,0-1.1-7.93c-.33-2.07-2.72-3.54-6.16-3.85a8.73,8.73,0,0,0-6.35,1.81,5.43,5.43,0,0,0-.51-.6c-1.64-1.44-4.08-1.76-6.77-1.38s-4.25,1.41-4.91,2.9a7.9,7.9,0,0,0-.56,2.09c-.29,2.3-.39,4.6-.79,6.89-.52,2.92-.61,5.86-1.71,8.77-3.4,9-6.68,18.07-11.15,27a17.81,17.81,0,0,1-2.63,4.52L249,225.61c3.86,5.2,7.13,10.3,10.74,15.56.56-.16,1.33-.2,1.92-.31a13,13,0,0,1,1.7-.19v0c1.85-.34,3.48-.71,5.16-.93,5.88-.77,9.24-2.88,10.42-6.21,0-.06.23-.1.46-.19.26.48.51.92.75,1.37,1.34,2.45,3.72,4.29,8.34,5C290.34,239.93,292.1,240.31,293.86,240.67ZM274,172.58c3.93.64,2.79,2.5,3,4.23-2.54-.08-4.8-.31-6.95.27C269,174.48,270.09,173.25,274,172.58ZM277,228.23a13.09,13.09,0,0,1-1.76,6.26c-.81,1.49-2.27,2.59-5,3.08s-5.18,1.07-8.12,1.44l-9.54-13.86a167.05,167.05,0,0,0,12.14-27c.95-2.65,2-5.29,2.94-7.94a14.47,14.47,0,0,0,.78-3.86c.2-2.42.5-4.83.76-7.3a10.65,10.65,0,0,1,7.72-.38v8.69a1.78,1.78,0,0,1-1.1.28c-4.74.23-7.09,1.32-8,4-1.15,3.29-2.05,6.61-3.07,9.92-.37,1.21-.8,2.43-1.12,3.65-.19.74-.66,1.51.13,2.15a2.56,2.56,0,0,0,2.18-.16c1-1.79,1.23-3.85,1.89-5.86,1-3,1.69-5.93,2.65-8.88.78-2.41,2.28-3.08,6.19-3,.67.4.39.9.39,1.35Q277,209.54,277,228.23Zm4.69-53.45c.3-1.15,1.56-1.84,3.12-1.88s3.47.72,3.88,1.7a18,18,0,0,1,.66,2.85,25.6,25.6,0,0,0-7.57-.27A2.71,2.71,0,0,1,281.66,174.78Zm1.66,59.9a13.38,13.38,0,0,1-2-6.77q0-18.58,0-37.17c0-.35-.14-.71.22-1,3.53-.4,5,0,6,1.91s1.16,3.82,1.79,5.73q1.52,4.6,3,9.2c.19.59.3,1.19,1.46,1.35a1.79,1.79,0,0,0,1.71-.74c-1.29-4.14-2.6-8.31-3.9-12.48-.28-.87-.5-1.75-.83-2.61-1-2.63-2.46-4.41-9.3-4.43v-8.35c2.52-1.11,4.51-1.11,7.9,0a15.2,15.2,0,0,1,.48,2.52c.09,4.8,1.48,9.48,3.21,14.16a209.78,209.78,0,0,0,11.08,25.88c.44.85.92,1.69,1.47,2.7l-9.11,14.64a55.85,55.85,0,0,1-10.43-2.05A4.74,4.74,0,0,1,283.32,234.68Z" transform="translate(-55.71 -27.69)"/><path d="M472.57,123.28c-3.59,6.09-9.17,10.61-16.34,11.48-5.9.71-11.61-.74-16.93-3.36A61.38,61.38,0,0,1,427.18,123a1.53,1.53,0,0,0-2.35.3c-3,4.08-5.95,8.23-9.1,12.21-3.48,4.38-7.33,8.69-12.3,11.4-4.57,2.5-10.51,3.71-15.42,1.45-4.67-2.14-8.06-7.55-6.51-12.68A1.52,1.52,0,0,0,379,134.2a21.75,21.75,0,0,1-8.56,4.74c-3.07.87-6.9,1.4-9.78-.32a5.35,5.35,0,0,1-2.52-3.24,11.56,11.56,0,0,1,.53-5.21,31.66,31.66,0,0,1,3.36-8.84c1-1.65-1.58-3.16-2.6-1.51a33.19,33.19,0,0,0-4,10.9,11.57,11.57,0,0,0,0,6.15,8.64,8.64,0,0,0,3.36,4.14c3.41,2.28,8,2,11.81,1a25,25,0,0,0,10.48-5.67l-2.5-1.46c-1.54,5.1.69,10.62,4.67,14,4.5,3.79,10.65,4.41,16.2,2.88,9.67-2.67,16.17-11,21.88-18.67,2-2.74,4-5.5,6.06-8.25l-2.36.31c3.55,3,7,5.91,11.13,8.08A39.06,39.06,0,0,0,448,137.46,26.42,26.42,0,0,0,465.19,135a27.07,27.07,0,0,0,10-10.18,1.5,1.5,0,0,0-2.59-1.51Z" transform="translate(-55.71 -27.69)"/><path d="M361.78,121.63c8.73-7.57,17.45-15.14,26.38-22.47q6.72-5.53,13.63-10.85c4.33-3.31,8.68-6.83,13.62-9.19s10.52-3,15.95-3.38a91.18,91.18,0,0,1,17,.73c9.13,1.16,16.67,6.92,21.54,14.58a34.72,34.72,0,0,1,2.67,32.23c-.76,1.75,1.82,3.28,2.59,1.51a37.75,37.75,0,0,0-.29-30.92c-4-8.51-11.24-16-20.24-19.09a35.78,35.78,0,0,0-7.47-1.46c-3-.35-6-.62-9-.7a67.88,67.88,0,0,0-17.47,1.52c-5.65,1.33-10.51,4.22-15.15,7.61-4.85,3.56-9.59,7.27-14.29,11-10.76,8.63-21.18,17.68-31.6,26.72-1.46,1.27.67,3.38,2.12,2.12Z" transform="translate(-55.71 -27.69)"/><path d="M426.92,123.59c2.12-2.2,27.06,36.68,49.1-6.13,7.17-13.92-7.61-35-11.51-36.54-38.08-15.06-56,1.39-56.66,1.93-1.84,1.41-22.77,18.05-23.24,18.92-1.21,2.27-29.94,10.56-26.54,35.81.41,3,8.39,6.59,20.48-1.79,4-2.8-.23,5.65,3.77,9.68,1.49,1.5,3.2,1.94,3.85,2.58,2.47,2.43,15,9,29.67-11.85A105.49,105.49,0,0,1,426.92,123.59Z" transform="translate(-55.71 -27.69)"/><path d="M58.86,125c4,6.72,10.17,11.74,18,12.85,6.56.92,13-.6,18.93-3.46,4.91-2.38,9-5.62,13.13-9.09l-2.36-.3c3.71,5,7.3,10.17,11.32,14.95s8.63,9,14.49,11.26c5.38,2.07,12,2.25,16.92-1.11s7.81-9.29,6.08-15l-2.5,1.46a25.14,25.14,0,0,0,10.28,5.61c3.84,1,8.55,1.39,12-.93a8.59,8.59,0,0,0,3.36-4.14,11.22,11.22,0,0,0,0-5.92,33.08,33.08,0,0,0-4-11.13c-1-1.64-3.61-.14-2.59,1.51a32,32,0,0,1,3.35,8.84,12.49,12.49,0,0,1,.57,5,5.29,5.29,0,0,1-2.56,3.42c-2.88,1.72-6.71,1.2-9.78.32a21.63,21.63,0,0,1-8.56-4.74,1.52,1.52,0,0,0-2.51,1.46c1.35,4.48-1.08,9.25-4.85,11.75-4.51,3-10.47,2.48-15.24.39-7.42-3.25-12.64-10.1-17.31-16.45l-5.93-8.07a1.53,1.53,0,0,0-2.35-.3,61.46,61.46,0,0,1-10.34,7.51,36.84,36.84,0,0,1-11.07,4.05,23.42,23.42,0,0,1-14.82-2,23.92,23.92,0,0,1-9.16-9.24A1.5,1.5,0,0,0,58.86,125Z" transform="translate(-55.71 -27.69)"/><path d="M174.36,119.74c-9.21-8-18.42-16-27.86-23.69q-7-5.76-14.28-11.26c-4.56-3.45-9.15-7-14.52-9.08s-11.38-2.62-17.14-2.84A81.77,81.77,0,0,0,83,74.09c-9.39,1.7-17.24,8.63-22,16.64A37.75,37.75,0,0,0,58.86,125c.77,1.76,3.35.24,2.59-1.52a34.49,34.49,0,0,1,1-29.31c4.08-7.83,11.1-14.77,19.87-16.91A53.2,53.2,0,0,1,90,76.22c2.82-.26,5.65-.42,8.49-.4A56.86,56.86,0,0,1,115,77.93c5.15,1.61,9.54,4.8,13.82,8,4.65,3.48,9.22,7.07,13.73,10.72,10.1,8.18,19.92,16.7,29.73,25.22,1.45,1.26,3.58-.86,2.12-2.13Z" transform="translate(-55.71 -27.69)"/><path d="M107.1,123.82C105,121.63,80,160.5,58,117.69c-7.17-13.92,7.61-35,11.51-36.54,38.08-15.06,56,1.39,56.66,1.93,1.84,1.41,22.77,18,23.24,18.92,1.22,2.27,29.94,10.56,26.54,35.81-.41,3-8.38,6.6-20.48-1.79-4-2.8.23,5.65-3.77,9.68-1.49,1.5-3.2,1.94-3.85,2.58-2.47,2.44-15,9-29.67-11.84A104.85,104.85,0,0,0,107.1,123.82Z" transform="translate(-55.71 -27.69)"/><ellipse class="cls-4" cx="217.65" cy="12.62" rx="62.92" ry="7.62"/></svg>